<svg width="41" height="41" viewBox="0 0 41 41" fill="none" xmlns="http://www.w3.org/2000/svg">
<path fill-rule="evenodd" clip-rule="evenodd" d="M20.653 0.644531C9.72799 0.644531 0.861328 9.5112 0.861328 20.4362C0.861328 31.3612 9.72799 40.2279 20.653 40.2279C31.578 40.2279 40.4447 31.3612 40.4447 20.4362C40.4447 9.5112 31.578 0.644531 20.653 0.644531ZM20.653 6.58203C23.9384 6.58203 26.5905 9.23411 26.5905 12.5195C26.5905 15.8049 23.9384 18.457 20.653 18.457C17.3676 18.457 14.7155 15.8049 14.7155 12.5195C14.7155 9.23411 17.3676 6.58203 20.653 6.58203ZM8.77799 28.3133C11.3311 32.1529 15.7051 34.6862 20.653 34.6862C25.6009 34.6862 29.9749 32.1529 32.528 28.3133C32.4686 24.3747 24.5915 22.2174 20.653 22.2174C16.6947 22.2174 8.83737 24.3747 8.77799 28.3133Z" fill="white"/>
</svg>
