<svg width="24" height="24" viewBox="0 0 24 24" fill="none" xmlns="http://www.w3.org/2000/svg">
<path fill-rule="evenodd" clip-rule="evenodd" d="M5.0249 12C5.0249 15.52 7.6349 18.43 11.0249 18.92V21.95C5.9749 21.45 2.0249 17.19 2.0249 12C2.0249 6.80999 5.9749 2.54999 11.0249 2.04999V5.07999C7.6349 5.56999 5.0249 8.47999 5.0249 12ZM13.0249 5.07999C16.0849 5.51999 18.5049 7.93999 18.9449 11H21.9749C21.5049 6.27999 17.7449 2.51999 13.0249 2.04999V5.07999ZM18.9449 13C18.5049 16.06 16.0849 18.48 13.0249 18.92V21.95C17.7449 21.48 21.5049 17.72 21.9749 13H18.9449Z" fill="black" fill-opacity="0.54"/>
</svg>
