<svg width="246" height="281" viewBox="0 0 246 281" fill="none" xmlns="http://www.w3.org/2000/svg">
<path d="M245.111 40.5519L102.032 40.9265L102.602 258.389L245.68 258.015L245.111 40.5519Z" fill="#E8EDFB"/>
<path d="M224.116 138.161L120.484 138.432L120.495 142.531L224.126 142.259L224.116 138.161Z" fill="white"/>
<path d="M224.144 148.817L120.512 149.088L120.523 153.187L224.154 152.915L224.144 148.817Z" fill="white"/>
<path d="M171.905 158.796L120.538 158.93L120.549 163.029L171.915 162.894L171.905 158.796Z" fill="white"/>
<path d="M155.761 189.227L120.618 189.319L120.682 213.915L155.825 213.823L155.761 189.227Z" fill="#31C7A4"/>
<path d="M224.255 189.047L166.58 189.198L166.591 193.297L224.266 193.146L224.255 189.047Z" fill="white"/>
<path d="M212.57 199.74L166.602 199.86L166.613 203.958L212.581 203.838L212.57 199.74Z" fill="white"/>
<path d="M219.287 209.558L166.628 209.696L166.638 213.794L219.298 213.657L219.287 209.558Z" fill="white"/>
<path d="M223.944 72.5815L120.313 72.8528L120.452 126.138L224.083 125.866L223.944 72.5815Z" fill="#100532"/>
<path d="M103.061 93.9013L107.773 93.0451C108.396 92.8166 108.965 92.4619 109.445 92.0032C109.924 91.5446 110.304 90.9919 110.56 90.3797L112.187 86.5059C112.209 86.4517 112.213 86.3918 112.198 86.3352C112.183 86.2787 112.151 86.2283 112.105 86.1916C112.06 86.1549 112.003 86.1338 111.945 86.1313C111.887 86.1289 111.829 86.1453 111.78 86.1781L107.627 89.1046C107.416 89.254 107.167 89.3416 106.909 89.3576C106.65 89.3737 106.392 89.3176 106.164 89.1957C105.649 88.9219 105.075 88.7788 104.491 88.7788C103.908 88.7788 103.334 88.9219 102.819 89.1957L101.119 90.1004L103.061 93.9013Z" fill="#F8AA9D"/>
<path d="M33.4921 71.8611L53.0854 73.974L57.8092 76.6334L68.1735 100.003C68.3085 100.21 68.5035 100.371 68.7325 100.465C68.9614 100.558 69.2133 100.579 69.4546 100.525L101.118 90.1065L103.061 93.9013L69.5761 112.912C67.9532 113.548 66.1605 113.604 64.5011 113.071C62.8416 112.537 61.4171 111.448 60.4686 109.985L33.4921 71.8611Z" fill="#100532"/>
<path d="M57.8639 77.9814L49.9707 142.341H21.0877L13.8017 79.1351C13.7099 78.3404 13.7858 77.5353 14.0246 76.7719C14.2633 76.0084 14.6595 75.3034 15.1877 74.7026C15.7158 74.1018 16.3641 73.6185 17.0907 73.2838C17.8173 72.9492 18.606 72.7707 19.4059 72.7598L52.8001 72.3227C53.5194 72.3137 54.2323 72.4589 54.8909 72.7484C55.5494 73.038 56.1384 73.4651 56.6181 74.0012C57.0978 74.5373 57.4572 75.1699 57.6721 75.8564C57.8869 76.5429 57.9524 77.2675 57.8639 77.9814Z" fill="#100532"/>
<path d="M41.5856 82.7779H19.0354V72.2617H52.1079C52.1079 73.6432 51.8356 75.0112 51.3068 76.2875C50.7779 77.5637 50.0028 78.7233 49.0256 79.6999C48.0484 80.6765 46.8884 81.451 45.6119 81.9791C44.3353 82.5072 42.9671 82.7787 41.5856 82.7779Z" fill="#F8AA9D"/>
<path d="M32.7272 193.398H21.0877L3.6438 274.716H9.04152L32.7272 193.398Z" fill="#F8AA9D"/>
<path d="M38.2463 193.398L36.7648 274.716H42.1625L49.8857 193.398H38.2463Z" fill="#F8AA9D"/>
<path d="M19.2844 280.709H14.1902L6.77063 278.304L9.09609 274.625L19.2844 279.525V280.709Z" fill="#F8C34B"/>
<path d="M7.51147 280.709H3.6438V274.625H9.09618L6.77072 278.304L7.51147 280.709Z" fill="#F8C34B"/>
<path d="M52.4055 280.709H47.3113L39.8917 278.304L42.2172 274.625L52.4055 279.525V280.709Z" fill="#F8C34B"/>
<path d="M40.6324 280.709H36.7648V274.625H42.2171L39.8917 278.304L40.6324 280.709Z" fill="#F8C34B"/>
<path d="M37.1351 48.6915C37.2785 49.4617 37.6472 50.172 38.1944 50.7326C38.7417 51.2931 39.443 51.6787 40.2095 51.8404C40.976 52.0022 41.7733 51.9329 42.5004 51.6414C43.2275 51.3498 43.8518 50.849 44.2942 50.2025C44.7366 49.5559 44.9772 48.7927 44.9855 48.0093C44.9939 47.226 44.7696 46.4577 44.3412 45.8019C43.9127 45.146 43.2993 44.6321 42.5785 44.325C41.8578 44.018 41.0622 43.9317 40.2924 44.0771C39.782 44.1726 39.2955 44.3678 38.8606 44.6515C38.4257 44.9351 38.051 45.3017 37.7578 45.7302C37.4646 46.1587 37.2587 46.6408 37.1518 47.1489C37.045 47.657 37.0393 48.1812 37.1351 48.6915Z" fill="#2857F5"/>
<path d="M28.3258 47.5524L43.1373 44.9434L44.9943 55.4855C45.3016 57.23 44.9033 59.0251 43.887 60.4759C42.8708 61.9267 41.3198 62.9144 39.5753 63.2217L34.983 64.0306C34.0108 64.2019 33.0104 63.9799 32.2019 63.4136C31.3934 62.8473 30.843 61.9829 30.6718 61.0108L28.3019 47.5566L28.3258 47.5524Z" fill="#F8AA9D"/>
<path d="M32.3749 55.6678C32.5484 55.9614 32.6309 56.2999 32.6121 56.6404C32.5933 56.9809 32.4739 57.3082 32.269 57.5809C32.0642 57.8535 31.783 58.0593 31.4612 58.1722C31.1394 58.2851 30.7914 58.3001 30.4611 58.2152C30.1308 58.1303 29.833 57.9493 29.6056 57.6952C29.3781 57.4411 29.2311 57.1253 29.1832 56.7876C29.1352 56.45 29.1884 56.1057 29.3361 55.7983C29.4839 55.4909 29.7194 55.2342 30.013 55.0607C30.4075 54.8312 30.8765 54.7663 31.3185 54.8799C31.7605 54.9935 32.14 55.2766 32.3749 55.6678Z" fill="#F8AA9D"/>
<path d="M39.8249 57.7444L32.7879 59.3534L29.1145 72.8568H41.3914L39.8249 57.7444Z" fill="#F8AA9D"/>
<path d="M28.5011 54.478L35.9936 52.3832C42.4782 50.4281 44.6275 47.0644 43.7654 42.4743C43.4557 40.8349 41.5128 39.8209 39.4302 40.2156L32.891 41.9764C29.2905 42.6503 26.8193 45.4979 27.3415 48.3273L28.5011 54.478Z" fill="#2857F5"/>
<path d="M31.6888 70.9746C31.6888 71.4357 31.5521 71.8865 31.2959 72.2699C31.0397 72.6534 30.6755 72.9522 30.2495 73.1287C29.8235 73.3051 29.3547 73.3513 28.9024 73.2613C28.4502 73.1714 28.0347 72.9493 27.7087 72.6232C27.3826 72.2972 27.1605 71.8817 27.0706 71.4295C26.9806 70.9772 27.0268 70.5084 27.2032 70.0824C27.3797 69.6563 27.6785 69.2922 28.062 69.036C28.4454 68.7798 28.8962 68.6431 29.3573 68.6431C29.9756 68.6431 30.5687 68.8887 31.0059 69.326C31.4432 69.7632 31.6888 70.3562 31.6888 70.9746Z" fill="#E56CD9"/>
<path d="M32.4659 76.4148C33.7536 76.4148 34.7975 75.3709 34.7975 74.0832C34.7975 72.7956 33.7536 71.7517 32.4659 71.7517C31.1783 71.7517 30.1344 72.7956 30.1344 74.0832C30.1344 75.3709 31.1783 76.4148 32.4659 76.4148Z" fill="white"/>
<path d="M36.4916 77.8601C37.7792 77.8601 38.8231 76.8162 38.8231 75.5286C38.8231 74.2409 37.7792 73.197 36.4916 73.197C35.2039 73.197 34.16 74.2409 34.16 75.5286C34.16 76.8162 35.2039 77.8601 36.4916 77.8601Z" fill="white"/>
<path d="M40.4321 76.342C41.7198 76.342 42.7636 75.2982 42.7636 74.0105C42.7636 72.7228 41.7198 71.679 40.4321 71.679C39.1445 71.679 38.1006 72.7228 38.1006 74.0105C38.1006 75.2982 39.1445 76.342 40.4321 76.342Z" fill="white"/>
<path d="M42.1806 73.0027C43.4683 73.0027 44.5122 71.9588 44.5122 70.6711C44.5122 69.3835 43.4683 68.3396 42.1806 68.3396C40.893 68.3396 39.8491 69.3835 39.8491 70.6711C39.8491 71.9588 40.893 73.0027 42.1806 73.0027Z" fill="white"/>
<path d="M49.9525 193.325H21.0937L10.6201 149.724C9.46401 144.902 9.98215 139.83 12.0894 135.341L18.6044 121.491L52.4358 121.23L59.0721 135.662C61.1231 140.126 61.6107 145.15 60.4565 149.925L49.9525 193.325Z" fill="#100532"/>
<path d="M29.3512 88.0301L14.7792 111.376L49.1631 118.753L49.4485 123.203L9.45432 123.021C8.01276 123 6.59732 122.633 5.32719 121.951C4.05706 121.269 2.96943 120.292 2.15589 119.101C1.34235 117.911 0.826729 116.543 0.65243 115.112C0.47813 113.681 0.650262 112.229 1.15433 110.878L14.0627 76.3604L29.3512 88.0301Z" fill="#100532"/>
<path d="M29.7155 46.0322H31.7617V80.744C31.7617 83.3093 30.7427 85.7694 28.9288 87.5833C27.1149 89.3972 24.6547 90.4162 22.0895 90.4162H16.7404V59.0135C16.7396 57.3091 17.0746 55.6211 17.7263 54.0462C18.378 52.4713 19.3336 51.0402 20.5386 49.8347C21.7435 48.6292 23.1741 47.6729 24.7488 47.0205C26.3234 46.368 28.0111 46.0322 29.7155 46.0322Z" fill="#2857F5"/>
<path d="M170.53 77.8958C184.806 63.6192 184.806 40.4721 170.53 26.1955C156.253 11.9189 133.106 11.9189 118.829 26.1955C104.553 40.4722 104.553 63.6191 118.829 77.8958C133.106 92.1724 156.253 92.1724 170.53 77.8958Z" fill="white"/>
<path d="M104.215 95.0124L98.6898 88.7465L110.226 78.6189L115.751 84.8849L104.215 95.0124Z" fill="#100532"/>
<path d="M54.318 143.804L43.3101 131.26L97.6031 84.0955L108.611 96.6456L54.318 143.804Z" fill="#EC4D42"/>
<path d="M108.757 83.5611C102.524 76.4558 98.5375 67.6617 97.3023 58.2909C96.0671 48.9201 97.6384 39.3934 101.817 30.9156C105.997 22.4378 112.596 15.3896 120.78 10.6623C128.965 5.9349 138.368 3.7407 147.8 4.35714C157.231 4.97358 166.268 8.37297 173.768 14.1254C181.268 19.8779 186.894 27.7251 189.934 36.6748C192.974 45.6244 193.292 55.2745 190.847 64.4048C188.403 73.5351 183.306 81.7356 176.201 87.9692C166.667 96.315 154.211 100.538 141.567 99.7115C128.923 98.8851 117.124 93.0769 108.757 83.5611ZM171.52 28.4788C166.859 23.1663 160.728 19.3551 153.901 17.5272C147.075 15.6993 139.86 15.9367 133.168 18.2094C126.476 20.4821 120.609 24.6881 116.308 30.2955C112.006 35.9029 109.464 42.6598 109.003 49.7118C108.542 56.7638 110.183 63.7942 113.717 69.9139C117.252 76.0336 122.522 80.9678 128.86 84.0924C135.199 87.2171 142.322 88.392 149.328 87.4685C156.335 86.545 162.91 83.5646 168.223 78.9042C175.337 72.6484 179.679 63.8264 180.297 54.3732C180.915 44.92 177.759 35.6076 171.52 28.4788Z" fill="#F8C34B"/>
<path d="M169.595 40.9805H122.552V49.2987H169.595V40.9805Z" fill="#E8EDFB"/>
<path d="M153.438 55.8684H122.552V64.1866H153.438V55.8684Z" fill="#E8EDFB"/>
<path d="M49.4788 123.203L53.9476 124.254C54.6058 124.314 55.2693 124.237 55.8963 124.028C56.5233 123.819 57.1002 123.483 57.5906 123.039L60.7236 120.234C60.7657 120.194 60.7938 120.142 60.8039 120.084C60.814 120.027 60.8056 119.968 60.7798 119.916C60.7541 119.864 60.7124 119.821 60.6608 119.794C60.6092 119.768 60.5503 119.758 60.4929 119.767L55.4898 120.629C55.2347 120.673 54.9725 120.645 54.7323 120.549C54.4922 120.452 54.2835 120.291 54.1298 120.083C53.7786 119.615 53.3183 119.241 52.7892 118.992C52.26 118.743 51.678 118.628 51.0939 118.656L49.1692 118.747L49.4788 123.203Z" fill="#F8AA9D"/>
</svg>
