<svg width="239" height="318" viewBox="0 0 239 318" fill="none" xmlns="http://www.w3.org/2000/svg">
<path d="M222.16 130.91L222.236 186.707L238.683 263.528H233.763L210.27 187.722C210.056 187.038 209.922 186.322 209.872 185.593L206.463 140.329H201.777L194.356 186.707L186.156 263.528H181.236L182.642 186.707L187.369 130.91H222.16Z" fill="#EC4D42"/>
<path d="M224.572 270.173H229.164L233.767 268.377V263.527L229.164 266.218L224.572 267.539V270.173Z" fill="#100532"/>
<path d="M235.197 270.173H238.682V263.527H233.768V268.377L235.197 270.173Z" fill="#100532"/>
<path d="M172.027 270.173H176.625L181.223 268.377V263.527L176.625 266.218L172.027 267.539V270.173Z" fill="#100532"/>
<path d="M182.654 270.173H186.139V263.527H181.225V268.377L182.654 270.173Z" fill="#100532"/>
<path d="M140.043 53.7396L136.417 51.8731C135.788 51.5491 135.111 51.3863 134.427 51.3949C133.744 51.4034 133.07 51.5832 132.446 51.9228L128.499 54.0519C128.444 54.0827 128.399 54.1341 128.37 54.1984C128.341 54.2628 128.33 54.3366 128.339 54.4091C128.347 54.4815 128.375 54.5487 128.417 54.6007C128.46 54.6527 128.515 54.6867 128.575 54.6977L133.758 55.5706C134.023 55.6137 134.273 55.7454 134.48 55.951C134.687 56.1565 134.843 56.4279 134.93 56.7345C135.126 57.422 135.459 58.0404 135.9 58.5354C136.34 59.0304 136.873 59.3868 137.454 59.5733L139.369 60.1907L140.043 53.7396Z" fill="#F8AA9D"/>
<path d="M222.161 130.909L220.064 109.288L226.671 45.2427C227.256 39.7914 223.391 35.0215 218.471 35.0215H195.628C191.059 35.0215 187.352 39.1313 187.352 44.1993V130.909H222.161Z" fill="#2857F5"/>
<path d="M197.851 4.5H195.016V13.0121H197.851V4.5Z" fill="#1E2966"/>
<path d="M207.807 27.0449H198.324C197.889 27.0449 197.458 26.941 197.056 26.7391C196.653 26.5372 196.288 26.2413 195.98 25.8682C195.672 25.4952 195.428 25.0523 195.262 24.5649C195.095 24.0775 195.009 23.5551 195.009 23.0275V8.7607C195.009 8.16508 195.106 7.57529 195.294 7.02501C195.482 6.47473 195.758 5.97474 196.105 5.55357C196.453 5.13241 196.866 4.79831 197.32 4.57038C197.774 4.34244 198.26 4.22512 198.752 4.22512H205.915C206.908 4.22512 207.86 4.70299 208.562 5.55357C209.264 6.40416 209.658 7.55779 209.658 8.7607V24.7949C209.658 25.3904 209.463 25.9616 209.116 26.3834C208.77 26.8052 208.299 27.043 207.807 27.0449Z" fill="#F8AA9D"/>
<path d="M205.977 18.4489H210.077C210.203 18.4499 210.328 18.4204 210.445 18.3622C210.562 18.304 210.668 18.2183 210.758 18.11C210.847 18.0017 210.918 17.873 210.966 17.7313C211.014 17.5897 211.038 17.4378 211.037 17.2847V7.21837C211.037 6.95954 210.995 6.70325 210.913 6.46421C210.831 6.22517 210.711 6.00809 210.56 5.8254C210.409 5.64271 210.229 5.49801 210.032 5.39961C209.834 5.30121 209.623 5.25103 209.409 5.25197H205.988L205.977 18.4489Z" fill="#100532"/>
<path d="M206.181 18.7621C207.212 18.7621 208.049 17.8368 208.049 16.6955C208.049 15.5541 207.212 14.6289 206.181 14.6289C205.149 14.6289 204.312 15.5541 204.312 16.6955C204.312 17.8368 205.149 18.7621 206.181 18.7621Z" fill="#F8AA9D"/>
<path d="M207.506 18.7617H201.965L198.604 35.1351L202.323 42.3317L210.558 35.1351L207.506 18.7617Z" fill="#F8AA9D"/>
<path d="M210.017 6.24632C210.017 6.78013 209.887 7.30195 209.642 7.7457C209.397 8.18946 209.049 8.53519 208.642 8.73914C208.235 8.9431 207.787 8.99609 207.356 8.89144C206.924 8.78678 206.527 8.52916 206.216 8.1512C205.905 7.77324 205.694 7.29194 205.608 6.76821C205.523 6.24448 205.568 5.70187 205.737 5.2091C205.907 4.71632 206.193 4.29553 206.56 3.99998C206.926 3.70443 207.357 3.54743 207.798 3.54884C208.387 3.55072 208.951 3.83574 209.368 4.34141C209.784 4.84709 210.017 5.53213 210.017 6.24632Z" fill="#100532"/>
<path d="M204.067 3.81256C204.067 4.52721 203.892 5.22581 203.564 5.82001C203.236 6.41422 202.771 6.87735 202.226 7.15084C201.681 7.42432 201.082 7.49587 200.503 7.35645C199.925 7.21703 199.394 6.87289 198.977 6.36755C198.56 5.86222 198.276 5.2184 198.161 4.51748C198.046 3.81657 198.105 3.09003 198.33 2.42978C198.556 1.76953 198.938 1.20521 199.429 0.808174C199.919 0.411136 200.495 0.199219 201.085 0.199219C201.876 0.199219 202.634 0.57991 203.193 1.25754C203.752 1.93517 204.067 2.85424 204.067 3.81256Z" fill="#100532"/>
<path d="M202.784 7.41727C202.784 7.9506 202.653 8.47196 202.409 8.91541C202.164 9.35886 201.816 9.70448 201.41 9.90858C201.003 10.1127 200.555 10.1661 200.124 10.062C199.692 9.95798 199.295 9.70116 198.984 9.32404C198.673 8.94692 198.461 8.46642 198.375 7.94334C198.289 7.42025 198.333 6.87807 198.501 6.38534C198.67 5.8926 198.955 5.47146 199.321 5.17515C199.687 4.87885 200.118 4.7207 200.558 4.7207C201.148 4.7207 201.714 5.00479 202.132 5.5105C202.549 6.0162 202.784 6.70209 202.784 7.41727Z" fill="#100532"/>
<path d="M200.214 5.09638C200.213 5.91606 200.011 6.71692 199.634 7.39778C199.258 8.07863 198.723 8.60891 198.098 8.92162C197.473 9.23433 196.786 9.31542 196.122 9.15465C195.459 8.99388 194.851 8.59846 194.373 8.01837C193.895 7.43827 193.57 6.69952 193.438 5.89549C193.307 5.09145 193.375 4.25821 193.634 3.50106C193.893 2.74391 194.331 2.09683 194.894 1.64158C195.456 1.18634 196.117 0.943367 196.793 0.943366C197.243 0.942427 197.689 1.04926 198.105 1.25772C198.52 1.46619 198.898 1.77217 199.216 2.1581C199.534 2.54402 199.785 3.00227 199.957 3.50652C200.128 4.01077 200.215 4.55107 200.214 5.09638Z" fill="#100532"/>
<path d="M207.117 4.50049C207.118 5.10992 206.97 5.70607 206.691 6.21347C206.413 6.72088 206.016 7.11674 205.552 7.35094C205.087 7.58513 204.576 7.64714 204.083 7.52911C203.589 7.41107 203.136 7.1183 202.78 6.68786C202.424 6.25742 202.181 5.70865 202.082 5.11103C201.984 4.51341 202.034 3.89381 202.226 3.33063C202.418 2.76745 202.744 2.28601 203.162 1.94727C203.58 1.60854 204.072 1.42774 204.575 1.42773C205.248 1.42773 205.894 1.75125 206.37 2.3273C206.847 2.90335 207.115 3.6849 207.117 4.50049Z" fill="#100532"/>
<path d="M205.81 7.79513C205.81 8.32864 205.68 8.85018 205.435 9.29378C205.191 9.73738 204.843 10.0831 204.436 10.2873C204.03 10.4914 203.582 10.5449 203.151 10.4408C202.719 10.3367 202.322 10.0798 202.011 9.70254C201.7 9.32529 201.488 8.84464 201.402 8.32138C201.316 7.79812 201.36 7.25575 201.529 6.76285C201.697 6.26995 201.982 5.84866 202.348 5.55226C202.714 5.25586 203.145 5.09766 203.585 5.09766C203.877 5.09766 204.166 5.16742 204.436 5.30298C204.706 5.43854 204.952 5.63723 205.158 5.88772C205.365 6.1382 205.529 6.43558 205.641 6.76285C205.753 7.09013 205.81 7.44089 205.81 7.79513Z" fill="#100532"/>
<path d="M203.258 7.52344H206.099V15.7788H204.722C204.334 15.7788 203.961 15.5919 203.687 15.2591C203.412 14.9263 203.258 14.4749 203.258 14.0042V7.52344Z" fill="#100532"/>
<path d="M138.531 60.235L139.65 53.669L165.58 60.0575L191.427 36.498L198.602 47.6922L170.488 72.9553C169.647 73.7117 168.657 74.1872 167.617 74.3342C166.576 74.4812 165.523 74.2945 164.561 73.7929L138.531 60.235Z" fill="#2857F5"/>
<path d="M162.998 18.2827L75.2266 42.0195L105.544 206.655L193.315 182.918L162.998 18.2827Z" fill="#E8EDFB"/>
<path d="M162.362 89.1309L98.7891 106.322L99.3095 109.149L162.882 91.9572L162.362 89.1309Z" fill="white"/>
<path d="M163.714 96.4848L100.141 113.678L100.661 116.504L164.235 99.3113L163.714 96.4848Z" fill="white"/>
<path d="M132.901 111.947L101.393 120.469L101.913 123.295L133.422 114.773L132.901 111.947Z" fill="white"/>
<path d="M126.809 135.612L105.252 141.441L108.377 158.413L129.934 152.584L126.809 135.612Z" fill="#2857F5"/>
<path d="M169.448 127.637L134.068 137.205L134.589 140.031L169.969 130.464L169.448 127.637Z" fill="white"/>
<path d="M170.802 134.997L135.422 144.564L135.942 147.391L171.322 137.823L170.802 134.997Z" fill="white"/>
<path d="M132.166 164.696L110.609 170.525L113.735 187.497L135.292 181.668L132.166 164.696Z" fill="#31C7A4"/>
<path d="M174.18 153.335L138.801 162.902L139.321 165.729L174.7 156.161L174.18 153.335Z" fill="white"/>
<path d="M175.535 160.691L140.156 170.26L140.677 173.087L176.056 163.517L175.535 160.691Z" fill="white"/>
<path d="M157.557 172.679L141.408 177.045L141.929 179.87L158.077 175.504L157.557 172.679Z" fill="white"/>
<path d="M154.019 43.8705L90.4453 61.0625L97.2167 97.8328L160.79 80.6408L154.019 43.8705Z" fill="#EC4D42"/>
<path d="M167.923 97.9814L164.045 98.812C163.373 98.958 162.683 98.9337 162.018 98.7407C161.354 98.5477 160.73 98.1901 160.185 97.6904L156.735 94.5174C156.685 94.4744 156.648 94.4124 156.631 94.3412C156.613 94.27 156.616 94.1936 156.638 94.1243C156.66 94.055 156.701 93.9966 156.753 93.9585C156.806 93.9204 156.868 93.9048 156.929 93.914L162.136 94.4748C162.402 94.502 162.67 94.4404 162.909 94.2965C163.149 94.1526 163.351 93.9319 163.495 93.6585C163.812 93.0406 164.25 92.5269 164.77 92.1629C165.29 91.7989 165.876 91.5958 166.476 91.5715L168.461 91.4863L167.923 97.9814Z" fill="#F8AA9D"/>
<path d="M167.924 97.9828L168.463 91.488L192.992 85.9373C194.386 85.6534 211.928 44.1934 211.928 44.1934H226.729C226.729 44.1934 205.105 96.7193 201.591 96.9464L167.924 97.9828Z" fill="#2857F5"/>
<path d="M89.4665 204.912H7.41406V280.363H89.4665V204.912Z" fill="#2857F5"/>
<path d="M89.4615 204.912H54.5645V280.363H89.4615V204.912Z" fill="#31C7A4"/>
<path d="M34.1337 204.912H25.3594V250.992H34.1337V204.912Z" fill="#31C7A4"/>
<path d="M56.4805 67.913H57.8861C59.1946 67.9111 60.4489 67.2799 61.3736 66.1581C62.2983 65.0363 62.8177 63.5156 62.8177 61.9301V56.4512H56.4805V67.913Z" fill="#EC4D42"/>
<path d="M42.7051 72.8054H50.0146V61.4492H44.1577C44.3354 65.2469 43.871 69.0485 42.7929 72.6209L42.7051 72.8054Z" fill="#EC4D42"/>
<path d="M35.3048 172.902L66.7925 177.544L70.3067 181.2L112.653 196.538C116.501 197.949 119.751 201.104 121.726 205.347L154.057 274.629L149.155 276.439L109.801 217.612C109.109 216.562 108.249 215.693 107.273 215.058C106.296 214.422 105.224 214.033 104.12 213.914L46.6207 206.816C44.3647 206.381 42.2084 205.379 40.2904 203.875C38.3723 202.372 36.7346 200.399 35.4824 198.083C34.2301 195.768 33.3908 193.161 33.0183 190.429C32.6458 187.698 32.7484 184.902 33.3193 182.222L35.3048 172.902Z" fill="#100532"/>
<path d="M90.2738 317.729L86.1507 314.783L82.8125 310.212L84.9326 305.861L87.8784 311.234L91.4275 315.366L90.2738 317.729Z" fill="#3A61DF"/>
<path d="M80.7447 310.907L77.6172 308.671L80.5221 302.701L84.9322 305.86L82.8121 310.212L80.7447 310.907Z" fill="#3A61DF"/>
<path d="M164.905 277.881L160.319 279.57L155.289 279.471L154.076 274.629L159.33 275.63L164.243 275.247L164.905 277.881Z" fill="#3A61DF"/>
<path d="M154.315 281.785L150.835 283.07L149.172 276.439L154.074 274.629L155.287 279.471L154.315 281.785Z" fill="#3A61DF"/>
<path d="M113.199 95.6517L115.232 89.5189C115.498 88.7265 115.625 87.8757 115.606 87.0204C115.587 86.1651 115.422 85.324 115.12 84.5502L113.223 79.6667C113.196 79.5984 113.152 79.5423 113.097 79.507C113.042 79.4718 112.979 79.4592 112.917 79.4712C112.856 79.4833 112.799 79.5192 112.756 79.5737C112.713 79.6282 112.685 79.6982 112.678 79.7732L112.028 86.2467C111.995 86.5771 111.888 86.8902 111.717 87.1509C111.547 87.4116 111.32 87.6097 111.061 87.7231C110.487 87.9855 109.973 88.4133 109.565 88.9698C109.157 89.5262 108.866 90.1946 108.719 90.9172L108.227 93.3235L113.199 95.6517Z" fill="#F8AA9D"/>
<path d="M30.9428 185.158L70.2734 181.176L78.3328 114.278C78.6626 111.36 78.4752 108.39 77.7832 105.567C77.0912 102.744 75.9105 100.132 74.3198 97.9051C72.729 95.6785 70.7648 93.8884 68.5582 92.6543C66.3515 91.4202 63.9531 90.7703 61.5228 90.7481L39.1486 90.5494C36.5495 90.5262 33.9802 91.2214 31.6361 92.5823C29.292 93.9432 27.2348 95.9338 25.6209 98.4029C24.007 100.872 22.8789 103.754 22.3223 106.831C21.7658 109.908 21.7954 113.098 22.409 116.159L29.4902 151.478L30.9428 185.158Z" fill="#F8C34B"/>
<path d="M113.2 95.6507L108.198 93.3438L91.2126 119.678L74.8126 98.5965L64.9141 120.566L86.7612 140.044C87.7094 140.888 88.8022 141.464 89.9587 141.727C91.1152 141.991 92.3058 141.936 93.4425 141.566C94.5791 141.197 95.6326 140.523 96.5251 139.593C97.4176 138.663 98.1262 137.503 98.5984 136.196L113.2 95.6507Z" fill="#F8C34B"/>
<path d="M46.4512 58.9707H61.2168V73.7213C61.2168 75.2858 60.704 76.7862 59.7913 77.8924C58.8785 78.9987 57.6405 79.6201 56.3496 79.6201H49.1747C48.4524 79.6201 47.7596 79.2724 47.2489 78.6534C46.7381 78.0344 46.4512 77.1948 46.4512 76.3194V58.9707Z" fill="#F8AA9D"/>
<path d="M57.8253 90.7549L58.083 97.4701C58.1181 98.4061 57.9038 99.3308 57.4718 100.108C57.0398 100.885 56.413 101.473 55.6841 101.785C54.9552 102.097 54.1629 102.116 53.4241 101.84C52.6853 101.564 52.0394 101.008 51.5817 100.253L45.7773 90.6484L52.4193 90.7052L57.8253 90.7549Z" fill="#F8AA9D"/>
<path d="M49.4791 74.6201L56.4021 72.7676L57.8254 90.7537L54.358 94.4731L45.7773 90.6473L49.4791 74.6201Z" fill="#F8AA9D"/>
<path d="M44.1328 61.4143H57.2231C58.1228 61.4153 59.0138 61.2013 59.8451 60.7846C60.6765 60.368 61.432 59.7568 62.0684 58.9861C62.7048 58.2154 63.2096 57.3002 63.5541 56.2928C63.8985 55.2855 64.0758 54.2057 64.0758 53.1152H49.8082C48.303 53.1152 46.8594 53.84 45.7951 55.1301C44.7308 56.4202 44.1328 58.17 44.1328 59.9945V61.4143Z" fill="#EC4D42"/>
<path d="M45.5078 68.3885C45.5078 68.7396 45.5937 69.0829 45.7546 69.3748C45.9155 69.6668 46.1442 69.8943 46.4118 70.0287C46.6794 70.163 46.9738 70.1982 47.2578 70.1297C47.5419 70.0612 47.8028 69.8921 48.0076 69.6438C48.2124 69.3956 48.3519 69.0792 48.4084 68.7349C48.4649 68.3905 48.4359 68.0336 48.325 67.7092C48.2142 67.3848 48.0265 67.1075 47.7857 66.9125C47.5449 66.7174 47.2618 66.6133 46.9722 66.6133C46.5838 66.6133 46.2113 66.8003 45.9367 67.1332C45.6621 67.4662 45.5078 67.9177 45.5078 68.3885Z" fill="#F8AA9D"/>
<path d="M66.8883 191.873L98.7279 214.43C100.407 215.618 101.716 217.445 102.45 219.628C103.184 221.81 103.303 224.225 102.787 226.497L84.9343 305.888L80.5238 302.73L88.759 227.746L45.0645 206.452L66.8883 191.873Z" fill="#100532"/>
<path d="M114.484 64.6843L112.467 64.3867L110.145 87.4952L112.163 87.7928L114.484 64.6843Z" fill="#100532"/>
<path d="M52.1816 150.938L57.6345 151.129C58.3391 151.157 59.0315 151.36 59.6684 151.727C60.3053 152.093 60.8731 152.615 61.3363 153.259L64.2648 157.32C64.3093 157.375 64.3372 157.446 64.344 157.523C64.3507 157.599 64.3359 157.676 64.302 157.741C64.2681 157.806 64.217 157.856 64.1571 157.881C64.0971 157.906 64.0319 157.906 63.972 157.881L58.8118 156.021C58.5487 155.924 58.2685 155.918 58.0027 156.003C57.7368 156.089 57.4958 156.262 57.3066 156.504C56.8806 157.046 56.3513 157.453 55.7651 157.69C55.1788 157.926 54.5537 157.985 53.9446 157.86L51.9297 157.448L52.1816 150.938Z" fill="#F8AA9D"/>
<path d="M51.934 157.421L52.18 150.941L20.1067 151.438L39.1598 109.275L23.6444 102.049L1.38745 158.089C1.01073 159.129 0.869884 160.273 0.979488 161.402C1.08909 162.53 1.44518 163.603 2.01098 164.509C2.57678 165.416 3.33181 166.123 4.19824 166.557C5.06467 166.992 6.01112 167.139 6.93995 166.983L51.934 157.421Z" fill="#F8C34B"/>
</svg>
