<svg width="306" height="273" viewBox="0 0 306 273" fill="none" xmlns="http://www.w3.org/2000/svg">
<path d="M286.988 110.216C264.452 55.2363 207.356 15.8446 156.547 17.325C143.945 17.696 132.072 20.5504 127.928 21.6471C98.1478 29.4557 77.3957 45.3569 65.8101 55.9104C50.9866 65.4606 38.3326 78.0156 28.6664 92.7637C23.3381 100.934 8.71094 124.295 8.71094 153.675C8.71094 203.614 57.2273 255.043 111.617 256.565C128.902 257.075 143.826 252.443 155.35 246.96C171.742 239.167 188.572 232.326 205.869 226.824L208.772 225.885C247.871 213.048 281.779 201.917 293.955 176.279C304.757 153.569 294.365 128.182 286.988 110.216Z" fill="#3A61DF"/>
<path d="M113.568 264.267C112.662 264.267 111.746 264.267 110.839 264.229C96.5896 263.822 82.4269 260.31 68.7383 253.778C56.0464 247.724 43.948 239.029 33.7493 228.62C12.6198 207.084 0.501953 179.765 0.501953 153.662C0.501953 132.036 7.63652 110.139 21.7025 88.5737L22.512 89.1027C8.5493 110.506 1.46957 132.226 1.46957 153.662C1.46957 179.514 13.4874 206.588 34.4395 227.943C44.5576 238.264 56.5625 246.882 69.1544 252.888C82.7204 259.361 96.7541 262.845 110.865 263.245C126.67 263.693 142.416 260.226 157.669 252.975L158.082 253.849C143.567 260.768 128.579 264.267 113.568 264.267Z" fill="#D1D1DF"/>
<path d="M234.262 225.192L233.939 224.279C265.726 213.038 289.029 201.056 299.441 179.146C311.494 153.769 300.125 126.037 292.603 107.684L293.5 107.32C301.086 125.827 312.549 153.798 300.315 179.569C289.761 201.782 266.277 213.871 234.262 225.192Z" fill="#D1D1DF"/>
<path d="M197.562 233.527C195.577 234.916 193.683 236.431 191.891 238.061C190.324 239.481 189.072 240.761 188.166 241.742C189.705 244.499 198.116 258.949 214.679 262.329C227.374 264.91 237.386 259.481 246.336 254.624C263.595 245.251 277.145 229.05 274.465 224.679C272.794 221.947 266.188 223.067 260.528 224.034C247.123 226.292 246.313 231.824 237.034 232.63C225.274 233.652 222.4 225.137 210.834 227.711C206.102 228.854 201.609 230.823 197.562 233.527Z" fill="#3A61DF"/>
<path d="M191.216 242.493C188.313 242.238 184.501 241.58 180.098 240.816C170.167 239.09 157.808 236.945 149.78 238.661L149.521 237.464C157.769 235.694 170.258 237.864 180.295 239.606C184.669 240.367 188.446 241.022 191.31 241.27L191.216 242.493Z" fill="#3A61DF"/>
<path d="M174.47 247.26C173.34 247.076 172.201 246.95 171.058 246.883C170.061 246.831 169.213 246.844 168.584 246.866C168.855 247.544 169.252 248.579 169.677 249.86C171.89 256.543 171.309 259.329 172.5 262.277C174.474 267.167 180.002 269.231 183.724 270.618C192.239 273.795 202.496 272.689 203.138 270.012C203.409 268.889 201.596 268.27 198.699 265.132C193.636 259.649 195.355 257.452 191.642 253.727C191.642 253.733 187.382 249.456 174.47 247.26Z" fill="#3A61DF"/>
<path d="M170.211 249.591C168.327 247.353 166.108 244.199 163.537 240.544C157.732 232.303 150.51 222.043 143.627 217.592L144.295 216.563C151.374 221.134 158.673 231.51 164.537 239.841C167.095 243.473 169.301 246.614 171.149 248.808L170.211 249.591Z" fill="#3A61DF"/>
<path d="M156.494 54.3881C166.135 44.7472 166.135 29.1161 156.494 19.4752C146.853 9.83427 131.222 9.83426 121.581 19.4752C111.941 29.1161 111.941 44.7472 121.581 54.3881C131.222 64.029 146.853 64.029 156.494 54.3881Z" fill="#EFEFF4"/>
<path d="M152.31 50.203C159.64 42.8734 159.64 30.9898 152.31 23.6603C144.981 16.3307 133.097 16.3307 125.767 23.6603C118.438 30.9898 118.438 42.8734 125.767 50.203C133.097 57.5326 144.981 57.5326 152.31 50.203Z" fill="#3A61DF"/>
<path d="M145.164 44.3999C149.285 41.0191 149.884 34.9383 146.503 30.818C143.122 26.6978 137.042 26.0983 132.921 29.4791C128.801 32.8599 128.202 38.9407 131.582 43.061C134.963 47.1812 141.044 47.7807 145.164 44.3999Z" fill="white"/>
<path d="M174.599 33.8678C172.171 33.6055 169.738 33.4399 167.3 33.3711C167.06 31.4434 166.622 29.5455 165.994 27.7073C165.361 25.8695 164.544 24.1005 163.555 22.4273C165.445 20.8759 167.248 19.2664 169.019 17.5667C167.661 15.4617 166.087 13.5041 164.323 11.7255C162.282 13.0973 160.31 14.5348 158.404 16.0378C155.554 13.3808 152.182 11.3465 148.502 10.0644C148.945 7.67761 149.296 5.26287 149.554 2.82017C147.163 2.08455 144.701 1.60133 142.21 1.37842C141.526 3.74371 140.938 6.10899 140.445 8.47428C138.505 8.37675 136.56 8.47834 134.64 8.77747C132.72 9.07662 130.837 9.57495 129.021 10.2644C127.823 8.15067 126.541 6.07459 125.173 4.03614C122.867 5.01417 120.669 6.23143 118.616 7.66793C119.613 9.92571 120.674 12.0835 121.841 14.2348C118.737 16.588 116.148 19.5517 114.233 22.9434C111.949 22.0833 109.634 21.3178 107.288 20.6469C106.148 22.8792 105.245 25.2251 104.595 27.646C106.784 28.7211 109.015 29.707 111.288 30.6037C110.857 32.4982 110.619 34.4315 110.578 36.3739C110.538 38.3204 110.698 40.2659 111.056 42.1796C108.759 42.9892 106.489 43.8923 104.26 44.8825C104.819 47.3267 105.634 49.7052 106.692 51.9784C109.056 51.3946 111.417 50.7076 113.72 49.9399C114.608 51.6685 115.669 53.3025 116.887 54.8167C118.104 56.3325 119.475 57.7182 120.977 58.9517C119.745 61.0374 118.586 63.1823 117.5 65.3863C119.498 66.9048 121.654 68.2026 123.931 69.2568C125.376 67.27 126.733 65.2455 128.002 63.1834C131.598 64.6859 135.461 65.4441 139.358 65.4121C139.756 67.8011 140.248 70.1879 140.832 72.5725C143.34 72.4546 145.827 72.0652 148.251 71.4114C148.083 68.9644 147.822 66.541 147.467 64.1413C149.323 63.5656 151.115 62.8004 152.815 61.8577C154.515 60.916 156.115 59.8051 157.592 58.542C159.433 60.1193 161.359 61.6481 163.326 63.0834C165.16 61.3797 166.811 59.4891 168.252 57.4422C166.561 55.6811 164.805 53.9899 162.981 52.3686C164.034 50.7355 164.916 48.9987 165.613 47.1854C166.31 45.3712 166.82 43.4908 167.136 41.5733C169.574 41.5991 172.019 41.5313 174.451 41.3668C174.763 38.8793 174.813 36.3658 174.599 33.8678ZM150.015 56.8197C145.342 59.409 139.905 60.2648 134.662 59.2363C129.42 58.2077 124.709 55.3609 121.361 51.1978C118.005 47.0437 116.221 41.8392 116.323 36.4997C116.371 33.8447 116.886 31.2189 117.845 28.7426C118.789 26.2706 120.167 23.9876 121.916 22.0016C123.657 19.9996 125.738 18.3204 128.063 17.0409C132.736 14.4525 138.172 13.5971 143.414 14.6256C148.656 15.6542 153.366 18.5005 156.714 22.6628C158.381 24.7277 159.673 27.068 160.533 29.578C161.399 32.079 161.811 34.7148 161.749 37.3609C161.705 40.0164 161.19 42.6429 160.227 45.118C158.307 50.099 154.69 54.2428 150.015 56.8197Z" fill="#D1D1DF"/>
<path d="M199.275 36.8778C207.449 34.0682 211.797 25.1645 208.987 16.9909C206.178 8.81723 197.274 4.46885 189.1 7.27846C180.927 10.0881 176.578 18.9918 179.388 27.1654C182.198 35.339 191.101 39.6874 199.275 36.8778Z" fill="#EFEFF4"/>
<path d="M203.854 29.0258C207.686 23.6901 206.468 16.2577 201.132 12.425C195.797 8.59234 188.364 9.81079 184.531 15.1465C180.699 20.4822 181.917 27.9146 187.253 31.7473C192.589 35.58 200.021 34.3616 203.854 29.0258Z" fill="#113251"/>
<path d="M200.203 23.2163C200.829 19.8956 198.644 16.6964 195.323 16.0707C192.003 15.445 188.803 17.6298 188.178 20.9506C187.552 24.2714 189.737 27.4706 193.058 28.0962C196.378 28.7219 199.578 26.5371 200.203 23.2163Z" fill="white"/>
<path d="M216.778 23.3176C215.275 22.937 213.765 22.6177 212.24 22.35C212.258 21.1187 212.15 19.8887 211.917 18.6795C211.684 17.4705 211.328 16.2882 210.856 15.1509C212.178 14.3446 213.436 13.4931 214.727 12.5706C214.06 11.1293 213.246 9.76087 212.298 8.48725C210.896 9.16888 209.53 9.89567 208.202 10.6676C207.425 9.71151 206.553 8.83719 205.599 8.05827C204.643 7.28075 203.61 6.60413 202.515 6.03918C203.005 4.5813 203.435 3.09762 203.805 1.58814C202.37 0.912778 200.867 0.390605 199.322 0.0302734C198.677 1.44945 198.097 2.88367 197.584 4.33295C196.374 4.09981 195.144 3.99172 193.913 4.01041C192.682 4.02782 191.456 4.17375 190.255 4.44584C189.692 3.01376 189.071 1.59674 188.391 0.194769C186.858 0.605195 185.372 1.17377 183.956 1.89133C184.382 3.38791 184.853 4.84578 185.392 6.29721C184.317 6.8981 183.305 7.60589 182.373 8.40984C181.44 9.21401 180.592 10.1122 179.844 11.0901C178.485 10.3483 177.1 9.66237 175.69 9.03234C174.774 10.3321 173.998 11.7246 173.374 13.1866C174.664 14.0468 175.978 14.8628 177.315 15.6347C176.875 16.7821 176.551 17.9706 176.348 19.1826C176.151 20.3978 176.08 21.6299 176.135 22.8596C174.619 23.1671 173.114 23.5316 171.619 23.953C171.753 25.5371 172.053 27.1025 172.516 28.6234C174.051 28.4653 175.593 28.2428 177.106 27.9783C177.511 29.1417 178.033 30.2613 178.663 31.3198C179.292 32.3786 180.028 33.3698 180.86 34.2775C179.903 35.4773 178.986 36.7213 178.109 38.0093C179.227 39.1398 180.464 40.1465 181.798 41.0121C182.874 39.8961 183.906 38.7468 184.895 37.5642C187.018 38.8269 189.375 39.6454 191.823 39.9703C191.858 41.5056 191.955 43.0506 192.113 44.5955C193.697 44.7455 195.292 44.7228 196.871 44.5278C196.98 42.9753 197.032 41.4303 197.026 39.8929C198.239 39.695 199.428 39.3707 200.573 38.9253C201.735 38.4925 202.851 37.9436 203.902 37.2868C204.918 38.4415 205.992 39.5704 207.098 40.6476C208.404 39.7405 209.611 38.6983 210.698 37.5384C209.795 36.2826 208.842 35.0656 207.84 33.8872C208.645 32.9551 209.353 31.9436 209.953 30.8682C210.55 29.7909 211.037 28.6564 211.408 27.4816C212.933 27.7138 214.475 27.8912 216.017 28.0041C216.434 26.4729 216.689 24.9021 216.778 23.3176ZM199.309 35.5386C197.739 36.1356 196.077 36.4564 194.397 36.4869C191.868 36.5259 189.373 35.8974 187.165 34.6646C184.956 33.4318 183.112 31.6383 181.818 29.4652C180.081 26.5583 179.424 23.1322 179.963 19.789C180.228 18.127 180.785 16.5251 181.608 15.0574C182.42 13.5893 183.489 12.2785 184.763 11.1869C186.033 10.0803 187.488 9.20678 189.062 8.60659C192.229 7.39721 195.721 7.34639 198.921 8.46313C202.121 9.57986 204.824 11.7922 206.55 14.709C207.412 16.1531 208.015 17.7371 208.331 19.3891C208.653 21.0356 208.679 22.7266 208.405 24.382C208.268 25.2103 208.063 26.0258 207.792 26.8204C207.513 27.6126 207.168 28.3798 206.76 29.1136C205.109 32.0646 202.471 34.3394 199.309 35.5386Z" fill="#EFEFF4"/>
<path d="M44.4676 155.075H48.6445V137.112H44.4676V155.075Z" fill="#113251"/>
<path d="M58.9149 187.31H64.498V159.236H58.9149V187.31Z" fill="#113251"/>
<path d="M45.8028 159.235H77.6051C79.7249 159.235 81.4434 157.517 81.4434 155.397V153.926C81.4434 151.807 79.7249 150.088 77.6051 150.088H45.8028C43.683 150.088 41.9646 151.807 41.9646 153.926V155.397C41.9646 157.517 43.683 159.235 45.8028 159.235Z" fill="#EFEFF4"/>
<path d="M42.8516 199.692H45.1384C45.1418 196.712 46.3272 193.855 48.4346 191.748C50.542 189.641 53.399 188.457 56.3789 188.454H67.5419C70.5215 188.457 73.3782 189.642 75.4851 191.748C77.5919 193.855 78.7766 196.712 78.7792 199.692H81.066C81.06 196.107 79.6333 192.67 77.0983 190.135C74.5633 187.6 71.1269 186.173 67.5419 186.167H56.3789C52.7933 186.173 49.3561 187.599 46.8204 190.134C44.2847 192.669 42.8575 196.106 42.8516 199.692Z" fill="#113251"/>
<path d="M62.8493 187.31H60.5625V200.25H62.8493V187.31Z" fill="#113251"/>
<path d="M80.6008 203.17C82.2096 202.791 83.206 201.179 82.8263 199.57C82.4466 197.961 80.8345 196.964 79.2256 197.344C77.6168 197.724 76.6203 199.336 77.0001 200.945C77.3798 202.554 78.9919 203.55 80.6008 203.17Z" fill="#FF9F33"/>
<path d="M46.762 201.393C47.3946 199.866 46.6694 198.115 45.1421 197.482C43.6149 196.85 41.864 197.575 41.2314 199.102C40.5988 200.63 41.324 202.381 42.8513 203.013C44.3785 203.646 46.1294 202.92 46.762 201.393Z" fill="#FF9F33"/>
<path d="M64.473 201.396C65.1056 199.869 64.3803 198.118 62.8531 197.485C61.3258 196.853 59.5749 197.578 58.9423 199.105C58.3097 200.633 59.035 202.383 60.5622 203.016C62.0895 203.649 63.8404 202.923 64.473 201.396Z" fill="#FF9F33"/>
<path d="M46.5548 142.07C47.3219 142.07 48.0578 141.766 48.6017 141.225C49.1457 140.685 49.4534 139.95 49.4576 139.183V117.863C49.3896 117.144 49.0557 116.476 48.5213 115.99C47.9868 115.503 47.2902 115.234 46.5677 115.234C45.8451 115.234 45.1486 115.503 44.6141 115.99C44.0797 116.476 43.7458 117.144 43.6777 117.863V139.183C43.6819 139.946 43.9861 140.676 44.5245 141.216C45.0628 141.757 45.7922 142.063 46.5548 142.07Z" fill="#EFEFF4"/>
<path d="M125.015 117.396L124.632 113.351L102.412 109.571L107.031 96.2049L100.012 87.4351L88.291 117.876L125.015 117.396Z" fill="#FF9F33"/>
<path d="M124.631 113.351L129.175 113.506C129.695 113.512 130.208 113.626 130.681 113.84C131.155 114.055 131.579 114.365 131.927 114.751L134.13 117.199C134.16 117.233 134.178 117.277 134.181 117.322C134.185 117.367 134.174 117.413 134.149 117.452C134.125 117.49 134.089 117.52 134.047 117.537C134.004 117.553 133.958 117.556 133.914 117.544L130.088 116.457C129.892 116.403 129.685 116.405 129.489 116.462C129.294 116.519 129.118 116.629 128.982 116.78C128.671 117.114 128.282 117.368 127.85 117.517C127.418 117.667 126.956 117.708 126.505 117.638L125.015 117.409L124.631 113.351Z" fill="white"/>
<path d="M102.082 66.8245L103.095 67.0083C103.566 67.095 104.049 67.0881 104.517 66.988C104.985 66.8879 105.429 66.6965 105.823 66.4249C106.217 66.1532 106.554 65.8066 106.814 65.4047C107.074 65.0029 107.253 64.5537 107.339 64.0829L107.936 60.7962L103.337 59.9512L102.082 66.8245Z" fill="#FF9F33"/>
<path d="M91.5293 67.9278L96.8415 68.8954L98.0962 62.064L93.8225 61.2803C93.533 63.5817 92.7768 65.7998 91.6003 67.7988L91.5293 67.9278Z" fill="#FF9F33"/>
<path d="M54.5526 131.323L77.5722 134.533L112.152 138.832C114.497 139.329 117.867 141.177 117.867 146.021L125.179 196.357L121.718 197.889L109.504 150.972L65.3609 150.821C63.6749 150.756 62.021 150.34 60.5046 149.601C58.9883 148.861 57.6428 147.813 56.5541 146.524C55.4655 145.235 54.6575 143.733 54.1818 142.114C53.7061 140.496 53.5732 138.796 53.7914 137.123L54.5526 131.323Z" fill="#FF4F67"/>
<path d="M97.9265 203.243L94.3882 203.127L90.8887 201.869L90.9887 198.789L94.4721 200.614L97.9813 201.566L97.9265 203.243Z" fill="#113251"/>
<path d="M89.748 202.972L87.0645 202.885L87.2031 198.663L90.9865 198.788L90.8865 201.869L89.748 202.972Z" fill="#113251"/>
<path d="M133.363 197.357L130.127 198.789L126.428 199.176L125.18 196.357L129.108 196.492L132.685 195.821L133.363 197.357Z" fill="#113251"/>
<path d="M125.883 200.666L123.428 201.753L121.719 197.889L125.18 196.356L126.428 199.175L125.883 200.666Z" fill="#113251"/>
<path d="M54.5527 131.323L83.7458 135.3L105.656 99.5947C106.565 98.046 107.133 96.3214 107.323 94.5358C107.513 92.7502 107.32 90.9446 106.758 89.2394C106.195 87.5341 105.275 85.9685 104.059 84.6468C102.844 83.325 101.36 82.2776 99.7082 81.5744L84.4941 75.101C82.7268 74.3506 80.8117 74.0129 78.8943 74.1136C76.977 74.2142 75.1077 74.7505 73.4287 75.6817C71.7496 76.613 70.3049 77.9147 69.2043 79.4879C68.1037 81.0611 67.3762 82.8645 67.0769 84.7611L63.6258 106.652L54.5527 131.323Z" fill="#FF9F33"/>
<path d="M95.7734 60.1294L106.502 62.1004L104.831 71.1954C104.672 72.0653 104.175 72.8365 103.448 73.3399C102.721 73.8433 101.824 74.0377 100.954 73.8805L95.3387 72.8489C94.8507 72.7593 94.4184 72.4794 94.1367 72.071C93.855 71.6625 93.7471 71.1589 93.8368 70.6709L95.7734 60.1294Z" fill="white"/>
<path d="M93.8223 61.2806L103.337 63.0255C104.657 63.2665 106.018 62.9739 107.123 62.2119C108.227 61.45 108.984 60.281 109.227 58.9616L98.8539 57.0586C97.7607 56.8581 96.6326 57.0998 95.7176 57.7306C94.8025 58.3614 94.1753 59.3297 93.9739 60.4227L93.8223 61.2806Z" fill="#FF9F33"/>
<path d="M94.0685 65.6478C94.0299 65.8587 94.0547 66.0762 94.1397 66.273C94.2248 66.4697 94.3662 66.6368 94.5463 66.7532C94.7263 66.8695 94.9368 66.9299 95.1511 66.9266C95.3654 66.9233 95.5739 66.8566 95.7503 66.7348C95.9267 66.613 96.063 66.4416 96.142 66.2424C96.221 66.0431 96.2391 65.8249 96.1941 65.6153C96.149 65.4058 96.0429 65.2143 95.889 65.0651C95.7351 64.9158 95.5405 64.8156 95.3296 64.777C95.0469 64.7252 94.7552 64.7879 94.5187 64.9512C94.2822 65.1146 94.1203 65.3651 94.0685 65.6478Z" fill="white"/>
<path d="M78.7533 143.273L113.881 148.728L90.9872 198.789L87.2038 198.663L99.7603 154.969L64.1777 150.727L78.7533 143.273Z" fill="#FF4F67"/>
<path d="M134.184 89.477L136.945 86.5419C137.299 86.1625 137.728 85.8604 138.205 85.6545C138.682 85.4486 139.196 85.3433 139.715 85.3452L143.008 85.3614C143.054 85.362 143.099 85.3775 143.135 85.4056C143.172 85.4337 143.198 85.4728 143.21 85.5171C143.223 85.5614 143.22 85.6085 143.204 85.6514C143.187 85.6942 143.157 85.7305 143.118 85.7549L139.741 87.8514C139.566 87.9593 139.424 88.1141 139.333 88.2982C139.241 88.4823 139.202 88.6884 139.222 88.8932C139.26 89.3486 139.186 89.8064 139.006 90.2264C138.826 90.6465 138.546 91.016 138.19 91.3025L137.015 92.2508L134.184 89.477Z" fill="white"/>
<path d="M97.173 80.5101L92.7638 92.6601L88.9805 77.0234L93.496 78.9458L97.173 80.5101Z" fill="#113251"/>
<path d="M95.2668 69.0571L100.421 69.9828L97.173 80.5105L93.9379 81.62L88.9805 77.0239L95.2668 69.0571Z" fill="white"/>
<path d="M137.104 92.3961L134.185 89.4771L112.278 105.191L83.0466 78.814L72.1738 89.5932L112.143 117.541L137.104 92.3961Z" fill="#FF9F33"/>
<path d="M111.589 117.496C110.597 117.497 109.63 117.191 108.818 116.622L76.2773 93.0509L76.845 92.2671L109.38 115.835C110.117 116.347 111.01 116.586 111.905 116.512C112.8 116.438 113.642 116.055 114.285 115.429L115.959 113.071L116.75 113.632L114.998 116.087C114.55 116.534 114.019 116.889 113.434 117.131C112.849 117.372 112.222 117.497 111.589 117.496Z" fill="white"/>
<path d="M87.2318 81.9394L86.5723 82.6475L100.695 95.8031L101.354 95.0951L87.2318 81.9394Z" fill="white"/>
<path d="M245.911 137.113H241.734V155.075H245.911V137.113Z" fill="#113251"/>
<path d="M231.466 159.235H225.883V187.309H231.466V159.235Z" fill="#113251"/>
<path d="M244.574 150.088H212.772C210.652 150.088 208.934 151.807 208.934 153.927V155.397C208.934 157.517 210.652 159.236 212.772 159.236H244.574C246.694 159.236 248.412 157.517 248.412 155.397V153.927C248.412 151.807 246.694 150.088 244.574 150.088Z" fill="#EFEFF4"/>
<path d="M247.526 199.692H245.239C245.236 196.712 244.052 193.855 241.945 191.748C239.838 189.642 236.981 188.457 234.002 188.454H222.839C219.859 188.457 217.002 189.642 214.895 191.748C212.789 193.855 211.604 196.712 211.601 199.692H209.314C209.32 196.107 210.747 192.67 213.282 190.135C215.817 187.6 219.254 186.173 222.839 186.167H234.002C237.587 186.173 241.023 187.6 243.558 190.135C246.093 192.67 247.52 196.107 247.526 199.692Z" fill="#113251"/>
<path d="M229.818 187.31H227.531V200.25H229.818V187.31Z" fill="#113251"/>
<path d="M211.597 203.042C213.123 202.406 213.844 200.653 213.208 199.127C212.572 197.601 210.82 196.88 209.294 197.516C207.768 198.152 207.047 199.905 207.683 201.431C208.319 202.957 210.072 203.678 211.597 203.042Z" fill="#FF4F67"/>
<path d="M248.502 202.366C249.671 201.197 249.671 199.302 248.502 198.133C247.333 196.964 245.438 196.964 244.269 198.133C243.1 199.302 243.1 201.197 244.269 202.366C245.438 203.535 247.333 203.535 248.502 202.366Z" fill="#FF4F67"/>
<path d="M230.793 202.366C231.962 201.197 231.962 199.301 230.793 198.133C229.624 196.964 227.729 196.964 226.56 198.133C225.391 199.301 225.391 201.197 226.56 202.366C227.729 203.534 229.624 203.534 230.793 202.366Z" fill="#FF4F67"/>
<path d="M243.826 142.07C243.058 142.07 242.323 141.766 241.779 141.225C241.235 140.684 240.927 139.95 240.923 139.183V117.863C240.882 117.46 240.927 117.052 241.053 116.667C241.18 116.281 241.386 115.927 241.658 115.626C241.931 115.325 242.263 115.085 242.633 114.92C243.004 114.755 243.405 114.67 243.811 114.67C244.217 114.67 244.618 114.755 244.989 114.92C245.359 115.085 245.692 115.325 245.964 115.626C246.236 115.927 246.442 116.281 246.569 116.667C246.695 117.052 246.74 117.46 246.699 117.863V139.183C246.695 139.945 246.391 140.675 245.854 141.215C245.316 141.755 244.588 142.062 243.826 142.07Z" fill="#EFEFF4"/>
<path d="M144.002 89.477L141.244 86.5419C140.889 86.1623 140.46 85.8601 139.982 85.6542C139.505 85.4483 138.99 85.3431 138.471 85.3452L135.181 85.3614C135.135 85.362 135.09 85.3775 135.054 85.4056C135.017 85.4337 134.991 85.4728 134.979 85.5171C134.966 85.5614 134.969 85.6085 134.985 85.6514C135.002 85.6942 135.032 85.7305 135.071 85.7549L138.448 87.8514C138.62 87.9587 138.76 88.1116 138.851 88.2932C138.942 88.4747 138.981 88.6779 138.964 88.8803C138.926 89.3357 139 89.7935 139.18 90.2135C139.36 90.6336 139.64 91.0031 139.996 91.2896L141.17 92.2379L144.002 89.477Z" fill="white"/>
<path d="M141.084 92.3955L144.003 89.4765L165.913 105.191L187.107 83.8579L197.012 94.9274L166.045 117.541L141.084 92.3955Z" fill="#FF4F67"/>
<path d="M167.268 117.396L167.651 113.351L196.344 108.471L209.404 79.9458L220.499 82.2939L203.992 117.876L167.268 117.396Z" fill="#FF4F67"/>
<path d="M167.651 113.351L163.106 113.506C162.586 113.512 162.074 113.626 161.6 113.84C161.126 114.055 160.702 114.365 160.355 114.751L158.152 117.199C158.122 117.233 158.104 117.277 158.1 117.322C158.097 117.367 158.108 117.413 158.132 117.452C158.156 117.49 158.192 117.52 158.235 117.537C158.277 117.553 158.324 117.556 158.368 117.544L162.193 116.457C162.389 116.403 162.597 116.405 162.792 116.462C162.987 116.519 163.163 116.629 163.299 116.78C163.611 117.114 163.999 117.367 164.431 117.517C164.863 117.666 165.325 117.708 165.777 117.638L167.267 117.409L167.651 113.351Z" fill="white"/>
<path d="M235.826 131.323L212.807 134.533L178.227 138.832C175.882 139.329 172.512 141.177 172.512 146.021L182.004 195.047L185.487 193.56L180.875 150.985L225.018 150.821C226.704 150.756 228.358 150.34 229.874 149.601C231.391 148.861 232.736 147.813 233.825 146.524C234.913 145.235 235.721 143.733 236.197 142.114C236.673 140.496 236.806 138.796 236.587 137.123L235.826 131.323Z" fill="#FF9F33"/>
<path d="M161.652 203.243L165.191 203.127L168.69 201.869L168.59 198.789L165.11 200.614L161.598 201.566L161.652 203.243Z" fill="#113251"/>
<path d="M169.828 202.972L172.512 202.885L172.373 198.663L168.59 198.788L168.69 201.869L169.828 202.972Z" fill="#113251"/>
<path d="M177.156 201.701L180.41 200.308L183.217 197.869L182.004 195.034L179.423 197.998L176.498 200.159L177.156 201.701Z" fill="#113251"/>
<path d="M184.678 198.485L187.145 197.431L185.484 193.547L182.004 195.034L183.217 197.869L184.678 198.485Z" fill="#113251"/>
<path d="M235.825 131.323L206.632 135.3L184.722 99.5947C183.813 98.0462 183.244 96.3215 183.054 94.5358C182.863 92.75 183.056 90.9442 183.619 89.2388C184.182 87.5335 185.102 85.9677 186.318 84.6461C187.534 83.3244 189.017 82.2772 190.67 81.5744L205.884 75.101C207.651 74.3506 209.566 74.0129 211.484 74.1136C213.401 74.2142 215.27 74.7505 216.949 75.6817C218.628 76.613 220.073 77.9147 221.174 79.4879C222.274 81.0611 223.002 82.8645 223.301 84.7611L226.752 106.652L235.825 131.323Z" fill="#FF4F67"/>
<path d="M211.626 143.273L176.499 148.728L168.59 198.789L172.373 198.663L190.619 154.969L226.199 150.727L211.626 143.273Z" fill="#FF9F33"/>
<path d="M193.206 80.5101L190.98 86.9899L197.012 83.1807L203.04 83.858L201.395 77.0234L196.88 78.9458L193.206 80.5101Z" fill="#113251"/>
<path d="M195.113 69.0571L189.959 69.9828L193.207 80.5105L196.442 81.62L201.396 77.0239L195.113 69.0571Z" fill="white"/>
<path d="M192.516 109.726L192.326 108.778L196.013 108.042L207.24 84.6323L208.114 85.0516L196.677 108.897L192.516 109.726Z" fill="white"/>
<path d="M201.073 117.496H198.848V116.528H201.073C201.68 116.528 202.277 116.365 202.8 116.058C203.324 115.751 203.757 115.31 204.053 114.78L214.997 95.2114L215.842 95.6856L204.898 115.251C204.518 115.931 203.963 116.498 203.29 116.892C202.618 117.287 201.853 117.495 201.073 117.496Z" fill="white"/>
<path d="M191.323 65.6252L190.033 57.0908L188.513 57.3198C187.672 57.4511 186.917 57.9095 186.413 58.5953C185.908 59.2811 185.695 60.1385 185.82 60.9806L185.923 61.6451C186.113 62.8883 186.788 64.0056 187.8 64.7518C188.812 65.498 190.079 65.8121 191.323 65.6252Z" fill="#113251"/>
<path d="M193.267 73.2076L196.302 72.7464C196.62 72.6984 196.926 72.5881 197.201 72.4218C197.476 72.2554 197.716 72.0364 197.907 71.7772C198.097 71.518 198.235 71.2238 198.312 70.9113C198.388 70.5989 198.403 70.2744 198.353 69.9565L197.005 61.0898L187.223 62.58L188.284 69.5404C188.37 70.1086 188.567 70.6544 188.864 71.1464C189.161 71.6384 189.552 72.067 190.015 72.4076C190.478 72.7483 191.003 72.9942 191.561 73.1315C192.119 73.2688 192.699 73.2947 193.267 73.2076Z" fill="white"/>
<path d="M197.577 67.9793L197.854 67.9373C198.159 67.8866 198.431 67.7181 198.612 67.4682C198.793 67.2183 198.868 66.9071 198.822 66.602L197.951 60.877L196.516 61.0963L197.577 67.9793Z" fill="#113251"/>
<path d="M191.413 62.1223L198 61.1192L197.571 58.3034C197.438 57.4342 196.965 56.6532 196.257 56.1319C195.549 55.6107 194.663 55.3917 193.794 55.5231L190.488 56.0295C189.68 56.1523 188.954 56.591 188.469 57.2491C187.985 57.9072 187.781 58.7308 187.904 59.5388C188.027 60.3467 188.466 61.0728 189.124 61.5573C189.782 62.0418 190.605 62.245 191.413 62.1223Z" fill="#113251"/>
<path d="M197.1 63.9575L195.9 56.0649L194.465 56.281L195.449 62.7318C195.476 62.9209 195.541 63.1026 195.639 63.2667C195.737 63.4307 195.866 63.5737 196.02 63.6876C196.173 63.8015 196.348 63.8839 196.533 63.9302C196.718 63.9765 196.911 63.9858 197.1 63.9575Z" fill="#113251"/>
<path d="M198.037 64.2415C198.063 64.4143 198.037 64.591 197.963 64.7492C197.889 64.9074 197.769 65.04 197.619 65.1302C197.47 65.2205 197.297 65.2644 197.122 65.2563C196.948 65.2482 196.779 65.1885 196.639 65.0848C196.498 64.9811 196.391 64.838 196.332 64.6737C196.272 64.5093 196.263 64.331 196.305 64.1613C196.347 63.9917 196.438 63.8383 196.568 63.7205C196.697 63.6027 196.858 63.5259 197.031 63.4997C197.145 63.4819 197.263 63.4869 197.376 63.5146C197.488 63.5423 197.595 63.5921 197.688 63.661C197.782 63.73 197.861 63.8168 197.921 63.9164C197.98 64.0161 198.02 64.1266 198.037 64.2415Z" fill="white"/>
<path d="M149.795 123.889H144.328V203.243H149.795V123.889Z" fill="#D1D1DF"/>
<path d="M201.368 117.541H92.7559V123.889H201.368V117.541Z" fill="#113251"/>
<path d="M130.986 245.002H129.373V235.713C129.372 234.453 128.871 233.245 127.98 232.354C127.09 231.464 125.882 230.963 124.622 230.962H78.731C76.778 230.962 74.9051 230.186 73.5241 228.805C72.1432 227.424 71.3674 225.551 71.3674 223.598C71.3674 221.645 72.1432 219.773 73.5241 218.392C74.9051 217.011 76.778 216.235 78.731 216.235H194.155C194.911 216.253 195.663 216.12 196.367 215.843C197.071 215.566 197.713 215.151 198.254 214.622C198.795 214.094 199.225 213.462 199.519 212.765C199.812 212.068 199.964 211.319 199.964 210.563C199.964 209.807 199.812 209.058 199.519 208.361C199.225 207.664 198.795 207.032 198.254 206.504C197.713 205.975 197.071 205.56 196.367 205.283C195.663 205.007 194.911 204.873 194.155 204.891H37.1621V203.278H194.155C195.124 203.258 196.088 203.431 196.99 203.788C197.892 204.145 198.713 204.679 199.406 205.357C200.099 206.035 200.649 206.845 201.025 207.739C201.401 208.633 201.594 209.593 201.594 210.563C201.594 211.533 201.401 212.493 201.025 213.387C200.649 214.281 200.099 215.091 199.406 215.769C198.713 216.447 197.892 216.981 196.99 217.338C196.088 217.695 195.124 217.868 194.155 217.848H78.731C77.9757 217.848 77.2279 217.996 76.5302 218.285C75.8325 218.574 75.1985 218.998 74.6645 219.532C74.1305 220.066 73.7069 220.7 73.4178 221.398C73.1288 222.095 72.9801 222.843 72.9801 223.598C72.9801 224.354 73.1288 225.101 73.4178 225.799C73.7069 226.497 74.1305 227.131 74.6645 227.665C75.1985 228.199 75.8325 228.623 76.5302 228.912C77.2279 229.201 77.9757 229.349 78.731 229.349H124.622C126.309 229.351 127.927 230.022 129.12 231.215C130.313 232.408 130.984 234.026 130.986 235.713V245.002Z" fill="white"/>
</svg>
