<svg width="127" height="127" viewBox="0 0 127 127" fill="none" xmlns="http://www.w3.org/2000/svg">
<path d="M83.3438 62.1875C89.9194 62.1875 95.25 56.8569 95.25 50.2812C95.25 43.7056 89.9194 38.375 83.3438 38.375C76.7681 38.375 71.4375 43.7056 71.4375 50.2812C71.4375 56.8569 76.7681 62.1875 83.3438 62.1875Z" fill="#FFE1BF"/>
<path d="M117.078 22.5H49.6094C48.0305 22.5 46.5163 23.1272 45.3999 24.2436C44.2835 25.3601 43.6563 26.8743 43.6562 28.4531V115.766C43.6562 117.344 44.2835 118.859 45.3999 119.975C46.5163 121.092 48.0305 121.719 49.6094 121.719H117.078C118.657 121.719 120.171 121.092 121.288 119.975C122.404 118.859 123.031 117.344 123.031 115.766V28.4531C123.031 26.8743 122.404 25.3601 121.288 24.2436C120.171 23.1272 118.657 22.5 117.078 22.5ZM83.3438 34.4062C86.4835 34.4062 89.5528 35.3373 92.1634 37.0817C94.7741 38.826 96.8088 41.3054 98.0103 44.2062C99.2119 47.1069 99.5263 50.2989 98.9137 53.3783C98.3012 56.4578 96.7892 59.2864 94.5691 61.5066C92.3489 63.7267 89.5203 65.2387 86.4408 65.8512C83.3614 66.4638 80.1694 66.1494 77.2687 64.9478C74.3679 63.7463 71.8885 61.7116 70.1442 59.1009C68.3998 56.4903 67.4688 53.421 67.4688 50.2812C67.4735 46.0724 69.1475 42.0373 72.1236 39.0612C75.0998 36.085 79.1349 34.411 83.3438 34.4062ZM111.125 107.828H55.5625C55.0362 107.828 54.5315 107.619 54.1593 107.247C53.7872 106.875 53.5781 106.37 53.5781 105.844C53.5781 105.317 53.7872 104.813 54.1593 104.441C54.5315 104.068 55.0362 103.859 55.5625 103.859H111.125C111.651 103.859 112.156 104.068 112.528 104.441C112.9 104.813 113.109 105.317 113.109 105.844C113.109 106.37 112.9 106.875 112.528 107.247C112.156 107.619 111.651 107.828 111.125 107.828ZM111.125 93.9375H55.5625C55.0362 93.9375 54.5315 93.7284 54.1593 93.3563C53.7872 92.9842 53.5781 92.4794 53.5781 91.9531C53.5781 91.4268 53.7872 90.9221 54.1593 90.55C54.5315 90.1778 55.0362 89.9688 55.5625 89.9688H111.125C111.651 89.9688 112.156 90.1778 112.528 90.55C112.9 90.9221 113.109 91.4268 113.109 91.9531C113.109 92.4794 112.9 92.9842 112.528 93.3563C112.156 93.7284 111.651 93.9375 111.125 93.9375ZM111.125 80.0469H55.5625C55.0362 80.0469 54.5315 79.8378 54.1593 79.4657C53.7872 79.0935 53.5781 78.5888 53.5781 78.0625C53.5781 77.5362 53.7872 77.0315 54.1593 76.6593C54.5315 76.2872 55.0362 76.0781 55.5625 76.0781H111.125C111.651 76.0781 112.156 76.2872 112.528 76.6593C112.9 77.0315 113.109 77.5362 113.109 78.0625C113.109 78.5888 112.9 79.0935 112.528 79.4657C112.156 79.8378 111.651 80.0469 111.125 80.0469Z" fill="#FFE1BF"/>
<path d="M102.304 34.068L54.6914 2.31805C54.3653 2.10048 53.982 1.98438 53.59 1.98438C53.198 1.98437 52.8148 2.10048 52.4887 2.31805L4.87759 34.068C4.60714 34.2526 4.38394 34.4982 4.22605 34.785C4.06816 35.0719 3.98001 35.3918 3.96875 35.719V91.2815C3.96875 92.5873 4.86172 93 5.95312 93.2659H101.203C101.725 93.2505 102.22 93.0364 102.589 92.6676C102.958 92.2987 103.172 91.8029 103.188 91.2815V35.719C103.167 35.3967 103.077 35.0825 102.925 34.7977C102.773 34.5129 102.561 34.2641 102.304 34.068ZM53.5781 6.3503L97.6312 35.719L59.5312 61.119L56.8781 59.349C55.9011 58.6961 54.7523 58.3475 53.5771 58.3475C52.402 58.3475 51.2532 58.6961 50.2761 59.349L47.625 61.119L9.525 35.719L53.5781 6.3503ZM7.9375 39.4278L44.0531 63.5003L7.9375 87.5747V39.4278ZM12.5016 89.2972L52.4748 62.651C52.8011 62.433 53.1847 62.3167 53.5771 62.3167C53.9695 62.3167 54.3532 62.433 54.6795 62.651L94.6547 89.2972H12.5016ZM99.2188 87.5747L63.1031 63.5003L99.2188 39.4278V87.5747Z" fill="#151A6A"/>
</svg>
