<svg width="230" height="288" viewBox="0 0 230 288" fill="none" xmlns="http://www.w3.org/2000/svg">
<path d="M47.4268 91.777C45.9457 88.664 45.4833 85.1031 46.1143 81.6714C46.6323 78.5693 48.3921 77.8652 49.3396 81.4875C51.9881 91.6375 70.8691 87.3364 74.2474 102.009C74.4417 102.492 75.501 108.264 75.7012 108.753C75.9811 109.29 76.2061 109.858 76.3721 110.447C76.4251 110.624 76.225 110.751 76.1014 110.681V110.732C76.1092 110.766 76.1089 110.801 76.1005 110.834C76.0921 110.868 76.076 110.898 76.0536 110.923C76.0311 110.948 76.0033 110.966 75.9725 110.976C75.9417 110.986 75.9091 110.987 75.8777 110.98C67.9145 109.66 60.3633 107.338 54.2776 101.375C51.4892 98.6338 49.1702 95.3849 47.4268 91.777Z" fill="#31C7A4"/>
<path d="M65.7783 12.2569C79.2754 22.3469 89.7073 36.5084 95.7654 52.9647C98.9377 61.6746 98.7906 74.3621 97.8606 83.8143C96.7659 94.9666 92.2575 115.818 92.2575 115.818C92.1994 115.96 92.1083 116.083 91.9931 116.176C91.8778 116.269 91.7424 116.328 91.5998 116.348C91.4571 116.368 91.3122 116.347 91.179 116.289C91.0457 116.231 90.9287 116.136 90.8391 116.015C80.0803 101.006 69.0624 85.6032 63.2298 67.4728C60.5497 59.4128 59.1838 50.9136 59.1923 42.3516C59.3159 32.2904 62.2057 22.5401 64.4893 12.8595C64.5134 12.7117 64.5712 12.5727 64.6574 12.4548C64.7436 12.337 64.8556 12.244 64.9834 12.1843C65.1111 12.1246 65.2505 12.0999 65.3893 12.1126C65.528 12.1253 65.6617 12.1748 65.7783 12.2569Z" fill="#31C7A4"/>
<path d="M45.0859 109.032H98.9272L105.36 96.5794C106.106 95.0414 107.228 93.7527 108.605 92.8526C109.981 91.9525 111.56 91.4753 113.17 91.4727H176.611C178.953 91.4727 181.198 92.4752 182.854 94.2597C184.509 96.0442 185.439 98.4646 185.439 100.988V242.682C185.439 245.206 184.509 247.626 182.854 249.411C181.198 251.195 178.953 252.198 176.611 252.198H42.8258C40.4844 252.198 38.2388 251.195 36.5832 249.411C34.9276 247.626 33.9974 245.206 33.9974 242.682L36.2692 118.529C36.2739 116.011 37.2045 113.597 38.8571 111.817C40.5097 110.037 42.7495 109.035 45.0859 109.032Z" fill="#100532"/>
<path d="M44.2563 121.827L127.675 110.469L139.623 212.414L56.2049 223.773L44.2563 121.827Z" fill="white"/>
<path d="M9.0186 135.203H141.668C143.625 135.204 145.529 135.891 147.093 137.16C148.656 138.429 149.795 140.211 150.337 142.238L176.016 252.156H31.3838C29.4263 252.156 27.522 251.47 25.9581 250.201C24.3943 248.931 23.2557 247.149 22.7143 245.121L0.349075 147.599C-0.035553 146.152 -0.103134 144.629 0.151566 143.149C0.406281 141.669 0.976349 140.273 1.81688 139.072C2.65741 137.87 3.74544 136.895 4.99518 136.223C6.24492 135.552 7.62227 135.203 9.0186 135.203Z" fill="#F8C34B"/>
<path d="M223.582 123.23L223.482 180.146L224.447 257.26H218.897L210.239 180.146L208.539 121.904H204.477L195.402 180.146L194.548 257.26H188.998L182.159 180.146V103.031L223.582 123.23Z" fill="#F8AA9D"/>
<path d="M178.617 263.942H183.808L191.365 261.309L188.999 257.262L178.617 262.648V263.942Z" fill="#2857F5"/>
<path d="M190.612 263.942H194.549V257.262H188.999L191.365 261.309L190.612 263.942Z" fill="#2857F5"/>
<path d="M208.517 263.942H213.708L221.265 261.309L218.899 257.262L208.517 262.648V263.942Z" fill="#2857F5"/>
<path d="M220.51 263.942H224.447V257.262H218.897L221.263 261.309L220.51 263.942Z" fill="#2857F5"/>
<path d="M228.527 173.348H178.382L173.444 103.021L219.646 95.6055L221.747 98.6378C227.09 106.365 229.862 115.807 229.616 125.44L228.527 173.348Z" fill="#F28200"/>
<path d="M130.673 112.799L127.271 109.075L157.164 80.1348L148.53 50.0781L159.883 51.8544L177.911 86.4341L130.673 112.799Z" fill="#2857F5"/>
<path d="M219.646 95.6172L173.445 103.033L148.496 49.7139C148.243 47.1104 148.827 44.4924 150.152 42.2982C151.476 40.1039 153.46 38.4667 155.77 37.6607L181.667 28.659C184.075 27.8232 186.681 27.9438 189.014 28.9992C191.347 30.0545 193.252 31.9748 194.386 34.4128L219.646 95.6172Z" fill="#2857F5"/>
<path d="M211.006 109.144L206.586 107.184L215.52 68.5505C215.602 68.3047 215.591 68.034 215.49 67.7967C215.389 67.5593 215.205 67.3744 214.978 67.2817L178.782 45.6686L189.741 29.2891L226.626 57.4109C227.35 57.8078 227.994 58.3548 228.521 59.0204C229.048 59.686 229.449 60.4573 229.699 61.2899C229.95 62.1226 230.045 63.0003 229.98 63.8728C229.916 64.7453 229.692 65.5955 229.322 66.3746L211.006 109.144Z" fill="#2857F5"/>
<path d="M127.271 109.085L123.793 108.45C123.188 108.343 122.57 108.372 121.976 108.536C121.382 108.7 120.827 108.994 120.344 109.402L117.289 111.939C117.248 111.976 117.219 112.026 117.206 112.081C117.193 112.137 117.196 112.196 117.216 112.249C117.235 112.303 117.27 112.348 117.315 112.379C117.36 112.41 117.413 112.425 117.466 112.421L122.127 111.908C122.366 111.881 122.606 111.927 122.822 112.039C123.038 112.151 123.222 112.325 123.352 112.542C123.643 113.03 124.041 113.433 124.511 113.717C124.981 114 125.509 114.154 126.047 114.166L130.673 112.764L127.271 109.085Z" fill="#F8AA9D"/>
<path d="M173.863 16.129C174.187 17.0783 174.24 18.1103 174.016 19.0925C173.792 20.0747 173.301 20.9624 172.606 21.6416C171.91 22.3209 171.043 22.7606 170.114 22.9045C169.185 23.0484 168.237 22.8899 167.393 22.4492C166.548 22.0086 165.845 21.3059 165.373 20.4315C164.901 19.557 164.683 18.5506 164.746 17.5414C164.809 16.5322 165.15 15.5663 165.726 14.7675C166.301 13.9688 167.085 13.3737 167.977 13.0587C168.551 12.8432 169.158 12.7518 169.764 12.7895C170.371 12.8273 170.964 12.9935 171.511 13.2787C172.057 13.5638 172.546 13.9624 172.95 14.4515C173.354 14.9405 173.664 15.5106 173.863 16.129Z" fill="#F8C34B"/>
<path d="M168.922 16.1794L163.342 18.1172L161.256 11.1372L166.835 9.19941L168.922 16.1794Z" fill="#F8C34B"/>
<path d="M166.422 13.4825C166.503 13.7487 166.508 14.0349 166.438 14.3046C166.368 14.5744 166.225 14.8156 166.027 14.9976C165.83 15.1797 165.587 15.2945 165.328 15.3273C165.07 15.3602 164.809 15.3097 164.577 15.1823C164.346 15.0549 164.155 14.8563 164.028 14.6116C163.901 14.3669 163.845 14.0872 163.866 13.808C163.887 13.5287 163.985 13.2625 164.146 13.0431C164.308 12.8236 164.526 12.6608 164.774 12.5753C165.104 12.4613 165.463 12.4926 165.771 12.6626C166.08 12.8326 166.314 13.1273 166.422 13.4825Z" fill="#F8AA9D"/>
<path d="M164.792 16.457L159.737 18.2142L160.578 35.9767L162.532 42.5171C162.634 42.8585 162.822 43.1629 163.074 43.3963C163.327 43.6298 163.635 43.7833 163.963 43.8398C164.292 43.8963 164.628 43.8536 164.936 43.7164C165.243 43.5793 165.509 43.353 165.705 43.0627L173.444 31.5044L164.792 16.457Z" fill="#F8AA9D"/>
<path d="M162.874 5.68359L149.558 10.3082L152.987 21.7805C153.392 23.1353 154.28 24.2611 155.455 24.9104C156.63 25.5597 157.997 25.6792 159.254 25.2427L165.158 23.1921C165.862 22.9475 166.448 22.4114 166.785 21.7017C167.123 20.992 167.185 20.1669 166.958 19.4078L162.857 5.68944L162.874 5.68359Z" fill="#F8AA9D"/>
<path d="M153.27 13.9028L166.838 9.19056L166.336 7.51199C165.79 5.68641 164.594 4.16928 163.01 3.29435C161.427 2.41942 159.586 2.25836 157.892 2.84659L150.71 5.34082C150.291 5.48646 149.902 5.71969 149.567 6.0272C149.231 6.3347 148.955 6.71046 148.754 7.13302C148.553 7.55559 148.431 8.0167 148.395 8.48999C148.36 8.96328 148.411 9.43951 148.546 9.89147L149.048 11.57C149.183 12.022 149.399 12.4409 149.685 12.8027C149.97 13.1645 150.318 13.4622 150.711 13.6789C151.103 13.8955 151.53 14.0267 151.969 14.0652C152.409 14.1036 152.85 14.0484 153.27 13.9028Z" fill="#F8C34B"/>
<path d="M206.563 107.113L204.356 110.082C203.972 110.596 203.691 111.19 203.531 111.826C203.371 112.463 203.335 113.128 203.426 113.781L204.014 117.917C204.024 117.973 204.05 118.025 204.088 118.065C204.127 118.105 204.176 118.13 204.229 118.138C204.282 118.146 204.336 118.135 204.383 118.108C204.43 118.081 204.468 118.038 204.491 117.986L206.368 113.356C206.464 113.119 206.619 112.917 206.815 112.77C207.012 112.623 207.242 112.538 207.481 112.524C208.018 112.49 208.539 112.314 208.999 112.012C209.459 111.71 209.843 111.291 210.118 110.793L211.024 109.143L206.563 107.113Z" fill="#F8AA9D"/>
<path d="M25.0283 170.49L147.817 197.32L130.88 287.371L8.09117 260.541L25.0283 170.49Z" fill="#E67B00"/>
<path d="M31.3057 242.885L62.437 249.688L61.8009 253.07L30.6696 246.267L31.3057 242.885Z" fill="white"/>
<path d="M29.6929 251.463L60.8242 258.266L60.1881 261.648L29.0568 254.845L29.6929 251.463Z" fill="white"/>
<path d="M66.1915 250.51L114.789 261.129L112.539 273.091L63.9417 262.472L66.1915 250.51Z" fill="white"/>
<path d="M41.9429 186.325L125.427 204.566L115.949 254.957L32.4652 236.716L41.9429 186.325Z" fill="white"/>
</svg>
